# xmcd
#
# Track frame offsets: 
#        150
#        15907
#        43239
#        63219
#        79447
#        99489
#        124184
#        145008
#        169933
#        197117
#        215662
#
# Disc length: 3276 seconds
#
# Revision: 0
# Processed by: cddbd v1.5.2PL0 Copyright (c) Steve Scherf et al.
# Submitted via: ExactAudioCopy v1.0b3
#
DISCID=9a0cca0b
DTITLE=Various Artist - Que Huong Bo Lai
DYEAR=2002
DGENRE=
TTITLE0=Ngoc Lan - Moi em ve
TTITLE1=Hong Truc - Duong ve que huong
TTITLE2=Chung Tu Luu - Toi da thay
TTITLE3=Ngoc Lan - Mot chut qua cho que huong
TTITLE4=Viet Dzung - Nang que huong
TTITLE5=Kieu Nga - Sai Gon niem nho khong ten
TTITLE6=Thien Trang - Que huong bo lai
TTITLE7=Duy Quang - Chieu Tay do
TTITLE8=Hong Truc - Tam diep khuc
TTITLE9=Huong Lan, Duy Quang - Hoa van no tren duong que huong
TTITLE10=Ngoc Lan - Sai Gon vinh biet tinh ta
EXTD=
EXTT0=
EXTT1=
EXTT2=
EXTT3=
EXTT4=
EXTT5=
EXTT6=
EXTT7=
EXTT8=
EXTT9=
EXTT10=
PLAYORDER=
